<svg id="Layer_1" data-name="Layer 1" xmlns="http://www.w3.org/2000/svg" viewBox="0 0 1000 1000"><defs><style>.cls-1{fill:#e5e5e5;}.cls-2{fill:#d900ff;}.cls-3{fill:#f0f;}</style></defs><title>1main 1</title><path class="cls-1" d="M257.32,411.69V575.21H244.61l-10.89-10.88a57.13,57.13,0,1,1-1.82-93.78V411.69ZM231.9,518.08a31.72,31.72,0,1,0-31.72,31.71A31.72,31.72,0,0,0,231.9,518.08Z"/><path class="cls-1" d="M293.91,461.29a12.71,12.71,0,1,1-12.71-12.71A12.71,12.71,0,0,1,293.91,461.29Zm-25.42,19.27h25.42v94.65H268.49Z"/><path class="cls-1" d="M419.36,518.08a57.12,57.12,0,1,0-25.53,47.6,31.72,31.72,0,0,1-31.62,29.16v25.44a57.15,57.15,0,0,0,57.15-57.15h-22A57.07,57.07,0,0,0,419.36,518.08ZM362.21,549.8a31.72,31.72,0,1,1,31.72-31.72A31.72,31.72,0,0,1,362.21,549.8Z"/><path class="cls-1" d="M466.83,575.21l69.43-88.85h-69V460.94H581.54l-69.43,88.85h69.43v25.42Z"/><path class="cls-1" d="M618,461.29a12.71,12.71,0,1,1-12.71-12.71A12.71,12.71,0,0,1,618,461.29Zm-25.42,19.27H618v94.65H592.53Z"/><path class="cls-1" d="M743.39,518.08v57.13H718V518.08a31.72,31.72,0,1,0-63.43,0v57.13H629.12V460.94h25.42v9.61a57.14,57.14,0,0,1,88.85,47.53Z"/><path class="cls-1" d="M811.71,460.94A57,57,0,0,1,857,483.25L838.75,501.5a31.71,31.71,0,1,0,0,33.16L857,552.91a57.14,57.14,0,1,1-45.29-92Z"/><path class="cls-1" d="M455.66,461.29A12.71,12.71,0,1,1,443,448.58,12.71,12.71,0,0,1,455.66,461.29Zm-25.42,19.27h25.42v94.65H430.24Z"/><path class="cls-2" d="M797.06,517.59a16,16,0,0,1,2.93-9,4.93,4.93,0,0,1,2.6-1.81,8,8,0,0,1,5.2,0,7.61,7.61,0,0,1,3.63,2.78,8.93,8.93,0,0,1,.6.91c.48.84.94.83,1.49.05a12.23,12.23,0,0,1,1.76-2.2,7.78,7.78,0,0,1,7.23-1.73c2.13.46,3.24,2,4.13,3.72a15.3,15.3,0,0,1,1.79,7.35,15.71,15.71,0,0,1-10.9,14.86,14.65,14.65,0,0,1-6.2.69A15.61,15.61,0,0,1,802,529a15,15,0,0,1-4.62-8.82C797.24,519.32,797.16,518.45,797.06,517.59Zm15.65,4.09a1.63,1.63,0,0,1-.17-.24,12.68,12.68,0,0,0-7.29-7.39,8.22,8.22,0,0,0-3.64-.5c-.21,0-.55.3-.54.45a1.09,1.09,0,0,0,.41.72,1.8,1.8,0,0,0,.79.15.59.59,0,0,1,.57.55,11.25,11.25,0,0,0,.33,1.53,4.14,4.14,0,0,0,2.1,2.53,6.3,6.3,0,0,0,4.41.5c.35-.06.6,0,.77.3a4.53,4.53,0,0,1,.3.46c.44,1.11.86,2.23,1.33,3.33a1,1,0,0,0,.61.58c.2,0,.48-.23.69-.41s.09-.27.15-.4c.47-1.14.94-2.28,1.44-3.4a.77.77,0,0,1,.93-.46,7.3,7.3,0,0,0,2.28.1,6.9,6.9,0,0,0,2.43-.85,4.61,4.61,0,0,0,2.11-3.81.52.52,0,0,1,.54-.55,2.94,2.94,0,0,0,.94-.22.73.73,0,0,0,.3-.57.82.82,0,0,0-.42-.54,1.58,1.58,0,0,0-.81,0c-.84.13-1.68.27-2.52.45a8.53,8.53,0,0,0-3.78,2,14.13,14.13,0,0,0-3.91,5.38C813,521.43,812.85,521.53,812.71,521.68Z"/><path class="cls-2" d="M821.9,505.1a1.7,1.7,0,0,1-.39,0,9,9,0,0,0-8.34,3.56c-.37.46-.37.42-.81,0a15,15,0,0,0-2.69-2.36,8.06,8.06,0,0,0-5.8-1.16,2,2,0,0,1-.28,0c.5-.95,4.51-2.82,7.26-3.09a15.59,15.59,0,0,1,8,1.12c1.09.47,2.11,1.11,3.17,1.67Z"/><path class="cls-1" d="M442.27,607.16v3.73h-4.08v26.3h-4v-26.3h-4.07v-3.73Z"/><path class="cls-1" d="M470.74,607.16v30h-4V623.5h-5.62v13.69h-4v-30h4V619.9h5.62V607.16Z"/><path class="cls-1" d="M498.32,633.45v3.74H487.43v-30h10.63v3.73h-6.64v9h5.7v3.56h-5.7v10Z"/><path class="cls-3" d="M544,633.45v3.74H533.06v-30h4v26.29Z"/><path class="cls-3" d="M574,637.19H569.9l-1.29-6.31h-6.39l-1.28,6.31h-4.08l6.13-30h4.85Zm-6.09-9.91-2.48-12.06L563,627.28Z"/><path class="cls-3" d="M601.81,628.31v.34c0,5.19-1.76,8.84-6.78,8.84s-6.82-3.65-6.82-8.84V627h4v2.44c0,2.92.82,4.17,2.83,4.17s2.79-1.25,2.79-4.17v-1.11c0-5.62-9.35-3.65-9.35-12.35v-.3c0-5.19,1.71-8.84,6.56-8.84s6.56,3.65,6.56,8.84v1.63h-4v-2.45c0-2.92-.81-4.16-2.57-4.16s-2.62,1.24-2.62,4.16V616C592.41,621.74,601.81,619.69,601.81,628.31Z"/><path class="cls-3" d="M628.14,607.16v3.73h-4.07v26.3h-4v-26.3H616v-3.73Z"/><path class="cls-1" d="M685.53,607.16l-3.74,30H677l-3.73-22.69-3.73,22.69h-4.81l-3.73-30h4l2.53,20.55,3.39-20.55h4.8l3.39,20.55,2.53-20.55Z"/><path class="cls-1" d="M715,637.19h-4.08l-1.28-6.31h-6.39L702,637.19h-4.08l6.14-30h4.84Zm-6.09-9.91-2.49-12.06L704,627.28Z"/><path class="cls-1" d="M742.44,607.16l-6.57,18.19v11.84h-4V625.35l-6.57-18.19,4.25,0,4.29,11.88,4.33-11.88Z"/></svg>